<svg width="16" height="16" viewBox="0 0 16 16" fill="none" xmlns="http://www.w3.org/2000/svg">
<path d="M8 7.6C7.24224 7.6 6.51551 7.38929 5.9797 7.01421C5.44388 6.63914 5.14286 6.13043 5.14286 5.6C5.14286 5.06957 5.44388 4.56086 5.9797 4.18579C6.51551 3.81071 7.24224 3.6 8 3.6C8.75776 3.6 9.48449 3.81071 10.0203 4.18579C10.5561 4.56086 10.8571 5.06957 10.8571 5.6C10.8571 5.86264 10.7832 6.12272 10.6397 6.36537C10.4961 6.60802 10.2856 6.8285 10.0203 7.01421C9.755 7.19993 9.44003 7.34725 9.09338 7.44776C8.74674 7.54827 8.37521 7.6 8 7.6ZM8 0C5.87827 0 3.84344 0.589998 2.34315 1.6402C0.842855 2.69041 0 4.11479 0 5.6C0 9.8 8 16 8 16C8 16 16 9.8 16 5.6C16 4.11479 15.1571 2.69041 13.6569 1.6402C12.1566 0.589998 10.1217 0 8 0Z" fill="white"/>
</svg>
